<svg width="19" height="20" viewBox="0 0 19 20" fill="none" xmlns="http://www.w3.org/2000/svg">
<path d="M9.5 19.5C14.7377 19.5 19 15.2377 19 10C19 4.76234 14.7377 0.5 9.5 0.5C4.26229 0.5 0 4.76234 0 10C0 15.2377 4.26234 19.5 9.5 19.5ZM9.5 1.76665C14.041 1.76665 17.7334 5.45897 17.7334 10C17.7334 14.541 14.041 18.2334 9.5 18.2334C4.95897 18.2334 1.26665 14.541 1.26665 10C1.26665 5.45897 4.95902 1.76665 9.5 1.76665Z" fill="#9C9C9C"/>
<path d="M12.2709 13.0274C12.388 13.1224 12.5273 13.1667 12.6667 13.1667C12.8535 13.1667 13.0372 13.0844 13.1607 12.9292C13.3792 12.6569 13.3348 12.2579 13.0625 12.0394L10.1333 9.69604V4.93337C10.1333 4.58503 9.84836 4.30005 9.50002 4.30005C9.15168 4.30005 8.8667 4.58503 8.8667 4.93337V10.0001C8.8667 10.1932 8.95538 10.3737 9.1042 10.494L12.2709 13.0274Z" fill="#9C9C9C"/>
</svg>
