<svg width="21" height="21" viewBox="0 0 21 21" fill="none" xmlns="http://www.w3.org/2000/svg">
<path d="M16.5944 10.0381C16.1999 10.0381 15.8801 10.3579 15.8801 10.7524V17.8951C15.8801 18.2896 15.5603 18.6094 15.1658 18.6094H2.30884C1.91435 18.6094 1.59455 18.2896 1.59455 17.8951V3.60963C1.59455 3.21513 1.91435 2.89534 2.30884 2.89534H10.8802C11.2747 2.89534 11.5944 2.57554 11.5944 2.18105C11.5944 1.78655 11.2747 1.4668 10.8802 1.4668H2.30884C1.12539 1.4668 0.166016 2.42617 0.166016 3.60963V17.8951C0.166016 19.0786 1.12539 20.038 2.30884 20.038H15.1658C16.3493 20.038 17.3086 19.0786 17.3086 17.8951V10.7524C17.3086 10.3579 16.9889 10.0381 16.5944 10.0381Z" fill="#FFC132"/>
<path d="M19.3655 0.839063C18.8526 0.326124 18.157 0.0380135 17.4316 0.0380972C16.7059 0.0360046 16.0095 0.324617 15.4981 0.839523L6.08963 10.2472C6.01157 10.3259 5.95269 10.4214 5.91749 10.5265L4.48895 14.8121C4.36427 15.1864 4.56663 15.5909 4.94091 15.7155C5.01353 15.7397 5.08957 15.7521 5.16608 15.7521C5.24275 15.752 5.31896 15.7397 5.39179 15.7157L9.67744 14.2872C9.7827 14.252 9.87833 14.1929 9.95672 14.1143L19.3652 4.70591C20.433 3.63818 20.4331 1.90692 19.3655 0.839063ZM18.3552 3.6966L9.06958 12.9822L6.29533 13.9086L7.21888 11.1379L16.508 1.85234C17.0187 1.34267 17.8459 1.34351 18.3556 1.85419C18.5991 2.09814 18.7363 2.4284 18.7373 2.77305C18.7382 3.11954 18.6006 3.45202 18.3552 3.6966Z" fill="#FFC132"/>
</svg>
