<svg width="18" height="21" viewBox="0 0 18 21" fill="none" xmlns="http://www.w3.org/2000/svg">
<path d="M8.85724 10.1341C10.1808 10.1341 11.3267 9.65938 12.2633 8.72279C13.1996 7.78636 13.6744 6.64058 13.6744 5.31689C13.6744 3.99365 13.1997 2.84771 12.2632 1.91098C11.3266 0.9747 10.1806 0.5 8.85724 0.5C7.53354 0.5 6.38776 0.9747 5.45132 1.91113C4.51489 2.84756 4.04004 3.99349 4.04004 5.31689C4.04004 6.64058 4.51489 7.78652 5.45132 8.72295C6.38806 9.65922 7.534 10.1341 8.85724 10.1341ZM6.28018 2.73983C6.99872 2.0213 7.84161 1.67203 8.85724 1.67203C9.87271 1.67203 10.7158 2.0213 11.4344 2.73983C12.153 3.45852 12.5024 4.30157 12.5024 5.31689C12.5024 6.33251 12.153 7.1754 11.4344 7.89409C10.7158 8.61278 9.87271 8.96205 8.85724 8.96205C7.84192 8.96205 6.99902 8.61263 6.28018 7.89409C5.56149 7.17555 5.21207 6.33251 5.21207 5.31689C5.21207 4.30157 5.56149 3.45852 6.28018 2.73983Z" fill="#7C7C7C"/>
<path d="M17.2863 15.879C17.2593 15.4893 17.2047 15.0642 17.1242 14.6153C17.0431 14.163 16.9385 13.7354 16.8134 13.3447C16.684 12.9408 16.5084 12.5419 16.291 12.1597C16.0656 11.7629 15.8007 11.4175 15.5034 11.1332C15.1926 10.8358 14.8121 10.5967 14.372 10.4223C13.9335 10.2488 13.4475 10.1609 12.9276 10.1609C12.7234 10.1609 12.526 10.2447 12.1447 10.4929C11.91 10.646 11.6355 10.823 11.3291 11.0188C11.0671 11.1857 10.7122 11.3421 10.2738 11.4837C9.8461 11.6221 9.41183 11.6923 8.98306 11.6923C8.5546 11.6923 8.12033 11.6221 7.69232 11.4837C7.25439 11.3423 6.89932 11.1859 6.63779 11.0189C6.33429 10.825 6.05963 10.648 5.82144 10.4928C5.44043 10.2445 5.24298 10.1608 5.03882 10.1608C4.5188 10.1608 4.03296 10.2488 3.59457 10.4225C3.15482 10.5966 2.77411 10.8357 2.46298 11.1334C2.16574 11.4178 1.90085 11.7631 1.67563 12.1597C1.4585 12.5419 1.28271 12.9406 1.15332 13.3448C1.02835 13.7356 0.923828 14.163 0.842651 14.6153C0.762085 15.0636 0.707611 15.4888 0.680603 15.8794C0.654053 16.2614 0.640625 16.6589 0.640625 17.0605C0.640625 18.1045 0.972504 18.9497 1.62695 19.573C2.27332 20.1881 3.12842 20.4999 4.16861 20.4999H13.7987C14.8386 20.4999 15.6937 20.1881 16.3402 19.573C16.9948 18.9501 17.3267 18.1046 17.3267 17.0603C17.3266 16.6573 17.313 16.2598 17.2863 15.879ZM15.5321 18.7238C15.105 19.1303 14.538 19.3279 13.7986 19.3279H4.16861C3.42902 19.3279 2.862 19.1303 2.43506 18.724C2.0162 18.3253 1.81265 17.781 1.81265 17.0605C1.81265 16.6857 1.82501 16.3157 1.84973 15.9605C1.87384 15.612 1.92313 15.2291 1.99622 14.8223C2.06839 14.4206 2.16025 14.0435 2.2695 13.7022C2.37433 13.3749 2.5173 13.0508 2.69461 12.7386C2.86383 12.441 3.05853 12.1858 3.27338 11.9801C3.47433 11.7877 3.72763 11.6302 4.02609 11.5121C4.30212 11.4028 4.61234 11.343 4.9491 11.334C4.99014 11.3558 5.06323 11.3975 5.18164 11.4747C5.42258 11.6317 5.70029 11.8108 6.00729 12.0069C6.35336 12.2276 6.79922 12.4268 7.33191 12.5988C7.8765 12.7749 8.43192 12.8643 8.98322 12.8643C9.53452 12.8643 10.0901 12.7749 10.6344 12.599C11.1675 12.4267 11.6132 12.2276 11.9597 12.0066C12.2739 11.8058 12.5439 11.6319 12.7848 11.4747C12.9032 11.3976 12.9763 11.3558 13.0173 11.334C13.3542 11.343 13.6645 11.4028 13.9406 11.5121C14.239 11.6302 14.4922 11.7878 14.6932 11.9801C14.9081 12.1856 15.1028 12.4409 15.272 12.7387C15.4494 13.0508 15.5926 13.375 15.6972 13.702C15.8066 14.0438 15.8987 14.4207 15.9707 14.8222C16.0436 15.2297 16.093 15.6127 16.1172 15.9606V15.9609C16.142 16.3148 16.1545 16.6846 16.1547 17.0605C16.1545 17.7811 15.951 18.3253 15.5321 18.7238Z" fill="#7C7C7C"/>
</svg>
